/* XPM */
static char *torora[] = {
/* columns rows colors chars-per-pixel */
"32 32 256 2",
"   c #005C00",
".  c #006301",
"X  c #016D01",
"o  c #046309",
"O  c #007A00",
"+  c #047709",
"@  c #077718",
"#  c #015634",
"$  c #1C7838",
"%  c #087321",
"&  c #26792A",
"*  c #062359",
"=  c #042669",
"-  c #042A77",
";  c #085459",
":  c #007447",
">  c #017F5C",
",  c #267F52",
"<  c #0A4C75",
"1  c #28747D",
"2  c #008300",
"3  c #008D01",
"4  c #05860C",
"5  c #019401",
"6  c #009B00",
"7  c #07980C",
"8  c #008614",
"9  c #169B1C",
"0  c #0C9615",
"q  c #02A204",
"w  c #16AE1A",
"e  c #158528",
"r  c #169A25",
"t  c #008031",
"y  c #168439",
"u  c #299E33",
"i  c #14AC25",
"p  c #30B832",
"a  c #1AD620",
"s  c #38C339",
"d  c #28D731",
"f  c #228748",
"g  c #2B964E",
"h  c #2C944F",
"j  c #31B647",
"k  c #38BA51",
"l  c #33AB52",
"z  c #388C68",
"x  c #379B78",
"c  c #2C8F6B",
"v  c #39A769",
"b  c #50B558",
"n  c #439473",
"m  c #45AF6E",
"M  c #69B576",
"N  c #3CD94B",
"B  c #48C84A",
"V  c #5BCE5C",
"C  c #45CF54",
"Z  c #59C966",
"A  c #51DC64",
"S  c #54C675",
"D  c #4CDC60",
"F  c #69C67C",
"G  c #79D77A",
"H  c #77D678",
"J  c #68D069",
"K  c #043697",
"L  c #032B84",
"P  c #0A3EA3",
"I  c #20589F",
"U  c #0942AA",
"Y  c #1950AC",
"T  c #0748BB",
"R  c #1C52BA",
"E  c #144DB4",
"W  c #285BBF",
"Q  c #1977AF",
"!  c #356FB6",
"~  c #4873AC",
"^  c #4578B8",
"/  c #0757CB",
"(  c #0953C8",
")  c #225EC7",
"_  c #0A62D3",
"`  c #1C6DD6",
"'  c #1D69D3",
"]  c #2663C8",
"[  c #366BC9",
"{  c #3B73CA",
"}  c #2673D8",
"|  c #367AD8",
" . c #2C6ED3",
".. c #4679D3",
"X. c #3B998D",
"o. c #38A389",
"O. c #3C97B4",
"+. c #3889AB",
"@. c #5E9D93",
"#. c #4E919B",
"$. c #5CA693",
"%. c #58B39A",
"&. c #57AF8A",
"*. c #75AE92",
"=. c #5D99B4",
"-. c #668CAD",
";. c #6491B9",
":. c #53BAAA",
">. c #5BA7B8",
",. c #58B8BB",
"<. c #52AFAB",
"1. c #68A7AC",
"2. c #76B7B4",
"3. c #72B7AB",
"4. c #5AC68E",
"5. c #68DA89",
"6. c #79D680",
"7. c #75CBA9",
"8. c #79D9A7",
"9. c #7ED6B6",
"0. c #76C7AF",
"q. c #3B89DD",
"w. c #3C89E2",
"e. c #5993C7",
"r. c #4788DB",
"t. c #5B8DDC",
"y. c #548AD8",
"u. c #5993D9",
"i. c #4C82C7",
"p. c #6193DE",
"a. c #6B99C2",
"s. c #59B3CF",
"d. c #75AACD",
"f. c #75B6C6",
"g. c #67A7DB",
"h. c #75B7D5",
"j. c #67B0D0",
"k. c #4A8DE2",
"l. c #4189E1",
"z. c #4D93E3",
"x. c #5392E3",
"c. c #5A98E5",
"v. c #6395E1",
"b. c #6B9EE5",
"n. c #609DE7",
"m. c #5AAFE4",
"M. c #68A5EA",
"N. c #74A3E6",
"B. c #73AAEB",
"V. c #7BABEA",
"C. c #77A7E8",
"Z. c #7EB6E9",
"A. c #65BCF4",
"S. c #77B0F0",
"D. c #75C8C6",
"F. c #62C3D2",
"G. c #76C6E6",
"H. c #6AC3FE",
"J. c #64C1FC",
"K. c #75C8FF",
"L. c #7ACBFE",
"P. c #82A2B6",
"I. c #8ADC8B",
"U. c #84D88A",
"Y. c #8BD698",
"T. c #93DF93",
"R. c #95D79E",
"E. c #8CCA96",
"W. c #9CE19C",
"Q. c #97E097",
"!. c #97DFA4",
"~. c #9CCFB8",
"^. c #87C9B1",
"/. c #A9D8B0",
"(. c #96EBB3",
"). c #93E8AE",
"_. c #ACE6AD",
"`. c #A5E4A5",
"'. c #A9E5B4",
"]. c #B5E8B5",
"[. c #B7E8BA",
"{. c #83B7C7",
"}. c #8BBED9",
"|. c #98BDCC",
" X c #84B3EB",
".X c #88BAE8",
"XX c #86B8F2",
"oX c #93BFF3",
"OX c #81AFE0",
"+X c #89C5C8",
"@X c #88D5CB",
"#X c #8AC9D9",
"$X c #96CAD7",
"%X c #98D9D8",
"&X c #99D4C9",
"*X c #AED5CE",
"=X c #ABEAD1",
"-X c #9CCAEA",
";X c #8ACBF9",
":X c #93C3F3",
">X c #9BC7F4",
",X c #98CAF3",
"<X c #8BD2FD",
"1X c #87D2F7",
"2X c #94D9FF",
"3X c #98D7FC",
"4X c #9ED7E7",
"5X c #A8C9E7",
"6X c #A2D4EF",
"7X c #ABD5E6",
"8X c #B5DAE8",
"9X c #A6CBF3",
"0X c #A6D3FB",
"qX c #ABDBFE",
"wX c #A8D7F7",
"eX c #B4DEFD",
"rX c #B4DBF6",
"tX c #A3E1FF",
"yX c #ADE6FF",
"uX c #AAE6F4",
"iX c #BBE4FF",
"pX c #B4E9FF",
"aX c #BCEDFF",
"sX c #B4E2FC",
"dX c #BFF2F4",
"fX c #C1ECC3",
"gX c #C6EEC9",
"hX c #C7EACB",
"jX c #C9EAD4",
"kX c #D7F2DA",
"lX c #DCF4DD",
"zX c #D5F2D5",
"xX c #D0EFD5",
"cX c #C2DCE5",
"vX c #C3E3EB",
"bX c #DCEDE6",
"nX c #C3EDFF",
"mX c #CCE9FC",
"MX c #D7ECF8",
"NX c #C5F2FE",
"BX c #CCF4FF",
"VX c #C8F5F6",
"CX c #D5F9FE",
"ZX c #DBF4F8",
"AX c #D4F0E2",
"SX c #E3F6E5",
"DX c #E7F7EA",
"FX c #EAF8ED",
"GX c #E9F5EE",
"HX c #E0F3FE",
"JX c #E7F6F7",
"KX c #F4FBF9",
"LX c #F8FDFD",
"PX c #F2FAF7",
"IX c #E3EEFA",
"UX c None",
/* pixels */
"UXUXUXUXUXUXUXUXUXUXUXUX( '  .| | ] ( ( UXUXUXUXUXUXUXUXUXUXUXUX",
"UXUXUXUXUXUXUXUXUX/ r.B.eXmXMXJXHXMXmX>Xx.] UXUXUXUXUXUXUXUXUXUX",
"UXUXUXUXUXUXUX/ k.9XMXPXFXSXDXLXLXLXKXKXGXvXV.) UXUXUXUXUXUXUXUX",
"UXUXUXUXUXUX` :X~.].kXgXJXSXIX5X8XkXlXlXSXDXbXwXt.T UXUXUXUXUXUX",
"UXUXUXUXUX| -XR.T.Q.R.>.u.y.C.9X9Xb.y.e.{.xXzXkX&XV.T UXUXUXUXUX",
"UXUXUXUX| -XU.H G %.y.rXIXGXDXPXLXLXKXbX9Xi.~.fXgX*.XXT UXUXUXUX",
"UXUXUX} -XM V Z +..X/.fXgXGXPXDXSXkXkXlXDXjXp.=._.[.@.b.UXUXUXUX",
"UXUX_ :Xh B B r.+XI.I.T.Q._.[.[._.].[.fXgXgXhX.X! W.R.2...UXUXUX",
"UXUXk.@.p 6.u.{.J J H '.7XN.V.9X9XOXe.3.`._.]./. X#.I.& >XU UXUX",
"UX_ ,X$ $ Z.Z.b B !.ZXV.*XAXDXFXPXFXFXcXe.Y.T.W.*.y.$   n t.UXUX",
"UXl.$.X.s.z.z Z ZXMXn.Y.I.Q.fXjX_.].fXgX*Xu.F 6.M 1.I . . >XK UX",
"UXS.$ J.q.}., G.iXB.M V '.ZXJXAXU.I.T.W.`.E.^ &   o V.# . {.W UX",
"_ 0X$ H.w.$.s.L.A.d.F MXHXHXHXY.U.U.!.G H U.1.; . . {.< X n t.UX",
"` 0X% y z.x A.K.c.z G.qXmXVXZ w p s s B b . o i.X X $.Y X e N.UX",
"| +XO @ M.@ + c M.X.K.<X3X%Xu 9 9 0 + X @ + X a.c f h { >.e  X- ",
"w.3.O : .XO O + h.O e <.<X3XD.m e O O O e o.x f.+.j.v p.z %.oXL ",
"| 2.2 : Z.2 2 8 h.2 2 4 ,.;X<X<X%.2 2 2 o.s.v ,X1 g #Xy.f 1XXX- ",
"} #X3 t n.7 3 3 g.3 3 3 m.H.K.L.,.3 3 g H.:.D. X>.<XqX[ h.qXC.= ",
"_ 6X5 8 q.l 5 5 O.9 7 :.K.H.J.J.A.0 r F.L.v 6 u.r l $XY ,XwXv.UX",
"UXXX7 5 Q 7.6 6 O.9.4.2X<X1XL.L.L.F.G.<XD.@X7.! 6 6 #X; r ^.[ UX",
"UXx.&.6 > :Xq m 2Xc.8.yXtX3X2X2X2X2X3XtXyXpXy.f.j j p.% 6 6XK UX",
"UX` 6Xq q q.7.9.tX<XB.aXaXpXyXyXyXyXpXaXnX X#.yXaX>X< 5 k N.= UX",
"UXUXM.S k ;Xc.S pXyX;Xy.eX=XdXNXNXNXBXiXt.;.sXaXsX[ {.&XwXR UXUX",
"UXUX` 6Xw uXn.:XnXaXaXpXe.u.h.9.9.h.p.^ $XaXNXnXv.-.aXiXb.= UXUX",
"UXUXUXk.@X5.pXr.XXiXBXNXnXaX7Xd.a.|.7XnXBXBXiXp.~ 8XnX:XU UXUXUX",
"UXUXUXUXM.rXNXaXg.r.qXVX=XVXBXBXBXBXCXCXBX>X{ -.8XBX0XR UXUXUXUX",
"UXUXUXUX/ M.eXBXNXrX{ B.#X8.A C N 5.%X:Xv.~ |.BXBX0X] UXUXUXUXUX",
"UXUXUXUXUXT x.eXBXCXBX}.^ ] { y.r.[ W ~ P.vXCXnXoXR UXUXUXUXUXUX",
"UXUXUXUXUXUXUX .XXeX).A (.).=X*X^.*XvXCXCXnX0Xt.P UXUXUXUXUXUXUX",
"UXUXUXUXUXUXUXUXU |  X4X8.D d a d N 5.%X>Xv.E * UXUXUXUXUXUXUXUX",
"UXUXUXUXUXUXUXUXUXUXK E | x.b.V.B.c.r.) K * UXUXUXUXUXUXUXUXUXUX",
"UXUXUXUXUXUXUXUXUXUXUXUXUXUXUX- = UXUXUXUXUXUXUXUXUXUXUXUXUXUXUX"
};
